# xmcd
#
# Track frame offsets:
# 150
# 183
# 51658
# 103638
# 158810
# 203965
#
# Disc length: 3305 seconds
#
#
# Revision: 0
# Processed by: cddbd v1.5.2PL0 Copyright (c) Steve Scherf et al.
# Submitted via: Nero 7, 11, 10, 0 
#
DISCID=450ce706
DTITLE=Bo Diddley - Live
DYEAR=1975
DGENRE=Blues
TTITLE0=He's A Hell Of A Man
TTITLE1=Don't Handle The Merchandise
TTITLE2=Get Up, Get Down
TTITLE3=Bad Dad
TTITLE4=Can I Put My Finger In It
TTITLE5=Unknown
EXTD=
EXTT0=He's A Hell Of A Man
EXTT1=Don't Handle The Merchandise
EXTT2=Get Up, Get Down
EXTT3=Bad Dad
EXTT4=Can I Put My Finger In It
EXTT5=Unknown
PLAYORDER=
